<svg id="Capa_1" enable-background="new 0 0 510.002 510.002" height="512" viewBox="0 0 510.002 510.002" width="512" xmlns="http://www.w3.org/2000/svg" xmlns:xlink="http://www.w3.org/1999/xlink"><linearGradient id="lg1"><stop offset="0" stop-color="#918291"/><stop offset=".2667" stop-color="#766a75"/><stop offset=".4488" stop-color="#685e68"/><stop offset=".5104" stop-color="#625962"/><stop offset=".81" stop-color="#4c464c"/><stop offset="1" stop-color="#433f43"/></linearGradient><linearGradient id="SVGID_1_" gradientUnits="userSpaceOnUse" x1="240.668" x2="300.094" xlink:href="#lg1" y1="60.667" y2="60.667"/><linearGradient id="SVGID_2_" gradientUnits="userSpaceOnUse" x1="-170.999" x2="287.133" y1="22.258" y2="22.258"><stop offset="0" stop-color="#e19974"/><stop offset=".5341" stop-color="#c86d36"/><stop offset=".6671" stop-color="#bd6732"/><stop offset=".9046" stop-color="#9e5528"/><stop offset="1" stop-color="#904d24"/></linearGradient><linearGradient id="SVGID_3_" gradientTransform="matrix(.707 .707 -.707 .707 249.061 -284.737)" gradientUnits="userSpaceOnUse" x1="395.55" x2="415.046" xlink:href="#lg1" y1="167.059" y2="167.059"/><linearGradient id="lg2"><stop offset="0" stop-color="#fee97d"/><stop offset=".5341" stop-color="#fed402"/><stop offset=".618" stop-color="#fecd0e"/><stop offset=".7684" stop-color="#feb92d"/><stop offset=".9666" stop-color="#fd9a5f"/><stop offset="1" stop-color="#fd9468"/></linearGradient><linearGradient id="SVGID_4_" gradientTransform="matrix(.707 .707 -.707 .707 249.061 -284.737)" gradientUnits="userSpaceOnUse" x1="384.162" x2="426.434" xlink:href="#lg2" y1="136.613" y2="136.613"/><linearGradient id="SVGID_5_" gradientTransform="matrix(.707 .707 -.707 .707 249.061 -284.737)" gradientUnits="userSpaceOnUse" x1="379.554" x2="434.598" xlink:href="#lg1" y1="117.792" y2="117.792"/><linearGradient id="lg3"><stop offset="0" stop-color="#f5f8f9"/><stop offset=".5213" stop-color="#d9e7ec"/><stop offset="1" stop-color="#b6c4cf"/></linearGradient><linearGradient id="SVGID_6_" gradientTransform="matrix(.707 .707 -.707 .707 249.061 -284.737)" gradientUnits="userSpaceOnUse" x1="367.546" x2="413.2" xlink:href="#lg3" y1="136.613" y2="136.613"/><linearGradient id="SVGID_7_" gradientTransform="matrix(.707 .707 -.707 .707 249.061 -284.737)" gradientUnits="userSpaceOnUse" x1="363.171" x2="401.877" xlink:href="#lg3" y1="121.567" y2="121.567"/><linearGradient id="SVGID_8_" gradientTransform="matrix(.707 .707 -.707 .707 249.061 -284.737)" gradientUnits="userSpaceOnUse" x1="400.296" x2="448.099" xlink:href="#lg3" y1="136.613" y2="136.613"/><linearGradient id="SVGID_9_" gradientTransform="matrix(.707 .707 -.707 .707 249.061 -284.737)" gradientUnits="userSpaceOnUse" x1="362.796" x2="450.78" xlink:href="#lg3" y1="136.613" y2="136.613"/><linearGradient id="SVGID_10_" gradientTransform="matrix(.707 .707 -.707 .707 218.381 -263.492)" gradientUnits="userSpaceOnUse" x1="382.528" x2="402.024" xlink:href="#lg1" y1="657.635" y2="657.635"/><linearGradient id="SVGID_11_" gradientTransform="matrix(.707 .707 -.707 .707 218.381 -263.492)" gradientUnits="userSpaceOnUse" x1="371.14" x2="413.412" xlink:href="#lg2" y1="627.189" y2="627.189"/><linearGradient id="SVGID_12_" gradientTransform="matrix(.707 .707 -.707 .707 218.381 -263.492)" gradientUnits="userSpaceOnUse" x1="366.532" x2="421.576" xlink:href="#lg1" y1="608.368" y2="608.368"/><linearGradient id="SVGID_13_" gradientTransform="matrix(.707 .707 -.707 .707 218.381 -263.492)" gradientUnits="userSpaceOnUse" x1="354.524" x2="400.178" xlink:href="#lg3" y1="627.189" y2="627.189"/><linearGradient id="SVGID_14_" gradientTransform="matrix(.707 .707 -.707 .707 218.381 -263.492)" gradientUnits="userSpaceOnUse" x1="350.149" x2="388.855" xlink:href="#lg3" y1="612.143" y2="612.143"/><linearGradient id="SVGID_15_" gradientTransform="matrix(.707 .707 -.707 .707 218.381 -263.492)" gradientUnits="userSpaceOnUse" x1="387.274" x2="435.077" xlink:href="#lg3" y1="627.189" y2="627.189"/><linearGradient id="SVGID_16_" gradientTransform="matrix(.707 .707 -.707 .707 218.381 -263.492)" gradientUnits="userSpaceOnUse" x1="349.774" x2="437.758" xlink:href="#lg3" y1="627.189" y2="627.189"/><linearGradient id="SVGID_17_" gradientUnits="userSpaceOnUse" x1="131.812" x2="378.19" xlink:href="#lg2" y1="110.149" y2="110.149"/><linearGradient id="SVGID_18_" gradientTransform="matrix(1 0 0 -1 0 212.405)" gradientUnits="userSpaceOnUse" x1="131.812" x2="378.19" xlink:href="#lg2" y1="-259.45" y2="-259.45"/><linearGradient id="SVGID_19_" gradientUnits="userSpaceOnUse" x1="75.483" x2="434.519" xlink:href="#lg2" y1="195.865" y2="195.865"/><linearGradient id="SVGID_20_" gradientUnits="userSpaceOnUse" x1="113.251" x2="202.551" xlink:href="#lg2" y1="230.521" y2="230.521"/><linearGradient id="SVGID_21_" gradientUnits="userSpaceOnUse" x1="42.83" x2="467.172" xlink:href="#lg2" y1="291.002" y2="291.002"/><linearGradient id="SVGID_22_" gradientUnits="userSpaceOnUse" x1="66.001" x2="249.247" xlink:href="#lg2" y1="308.954" y2="308.954"/><linearGradient id="SVGID_23_" gradientUnits="userSpaceOnUse" x1="75.483" x2="434.519" xlink:href="#lg2" y1="386.139" y2="386.139"/><linearGradient id="SVGID_24_" gradientUnits="userSpaceOnUse" x1="50.001" x2="366.357" xlink:href="#lg2" y1="110.149" y2="110.149"/><linearGradient id="SVGID_25_" gradientUnits="userSpaceOnUse" x1="42.001" x2="377.096" xlink:href="#lg2" y1="463.564" y2="463.564"/><linearGradient id="SVGID_26_" gradientUnits="userSpaceOnUse" x1="-14.999" x2="407.741" xlink:href="#lg2" y1="195.841" y2="195.841"/><linearGradient id="SVGID_27_" gradientUnits="userSpaceOnUse" x1="-83.999" x2="433.19" xlink:href="#lg2" y1="290.978" y2="290.978"/><linearGradient id="SVGID_28_" gradientUnits="userSpaceOnUse" x1="-29.999" x2="424.249" xlink:href="#lg2" y1="386.115" y2="386.115"/><linearGradient id="SVGID_29_" gradientUnits="userSpaceOnUse" x1="163.253" x2="326.466" xlink:href="#lg1" y1="339.335" y2="339.335"/><linearGradient id="SVGID_30_" gradientUnits="userSpaceOnUse" x1="156.001" x2="298.004" xlink:href="#lg1" y1="339.335" y2="339.335"/><linearGradient id="SVGID_31_" gradientTransform="matrix(.707 -.707 .707 .707 61.217 304.717)" gradientUnits="userSpaceOnUse" x1="139.135" x2="158.631" xlink:href="#lg1" y1="76.314" y2="76.314"/><linearGradient id="SVGID_32_" gradientTransform="matrix(.707 -.707 .707 .707 61.217 304.717)" gradientUnits="userSpaceOnUse" x1="127.747" x2="170.019" xlink:href="#lg2" y1="45.868" y2="45.868"/><linearGradient id="SVGID_33_" gradientTransform="matrix(.707 -.707 .707 .707 61.217 304.717)" gradientUnits="userSpaceOnUse" x1="123.139" x2="178.184" xlink:href="#lg1" y1="27.047" y2="27.047"/><linearGradient id="SVGID_34_" gradientTransform="matrix(.707 -.707 .707 .707 61.217 304.717)" gradientUnits="userSpaceOnUse" x1="111.131" x2="156.786" xlink:href="#lg3" y1="45.868" y2="45.868"/><linearGradient id="SVGID_35_" gradientTransform="matrix(.707 -.707 .707 .707 61.217 304.717)" gradientUnits="userSpaceOnUse" x1="106.756" x2="145.462" xlink:href="#lg3" y1="30.822" y2="30.822"/><linearGradient id="SVGID_36_" gradientTransform="matrix(.707 -.707 .707 .707 61.217 304.717)" gradientUnits="userSpaceOnUse" x1="143.881" x2="191.684" xlink:href="#lg3" y1="45.868" y2="45.868"/><linearGradient id="SVGID_37_" gradientTransform="matrix(.707 -.707 .707 .707 61.217 304.717)" gradientUnits="userSpaceOnUse" x1="106.381" x2="194.365" xlink:href="#lg3" y1="45.868" y2="45.868"/><g><path d="m232.743 21.333h44.516v78.667h-44.516z" fill="url(#SVGID_1_)"/><path d="m478.224 44.516h-446.446c-17.55 0-31.777-14.227-31.777-31.777 0-7.036 5.703-12.739 12.738-12.739h484.523c7.035 0 12.738 5.703 12.738 12.738.001 17.55-14.226 31.778-31.776 31.778z" fill="url(#SVGID_2_)"/><g><path d="m428.359 122.928c-3.439-.941-7.449-.524-11.287 1.288-.031.016-.063.028-.094.044-1.383.658-2.649.418-3.401-.335-.753-.753-.993-2.018-.335-3.401.016-.031.028-.063.044-.094 1.812-3.838 2.229-7.848 1.288-11.287 1.539 2.896 3.488 5.56 5.857 7.929 2.368 2.368 5.032 4.317 7.928 5.856z" fill="url(#SVGID_3_)"/><path d="m453.995 113.397c-11.141 11.141-26.863 13.481-35.118 5.227-8.254-8.254-5.914-23.977 5.227-35.118s26.863-13.481 35.118-5.227c8.254 8.254 5.914 23.977-5.227 35.118z" fill="url(#SVGID_4_)"/><path d="m431.333 77.845 28.323 28.323c5.986-9.972 6.15-21.306-.434-27.889-6.584-6.584-17.917-6.42-27.889-.434z" fill="url(#SVGID_5_)"/><g><path d="m452.196 83.05-17.798-10.275c-11.956-6.902-26.9 1.726-26.9 15.531 0 13.805 14.944 22.433 26.9 15.531l17.798-10.275c4.046-2.337 4.046-8.176 0-10.512z" fill="url(#SVGID_6_)"/><path d="m452.197 93.561-2.744 1.584c.148-3.231-.594-6.576-2.411-9.723l-4.624-8.019 9.779 5.65c4.044 2.334 4.044 8.174 0 10.508z" fill="url(#SVGID_7_)"/><path d="m454.451 85.305 10.275 17.798c6.902 11.955-1.726 26.9-15.531 26.9-13.262 0-21.747-13.793-16.273-25.477l20.524-20.524c.405.387.703.78 1.005 1.303z" fill="url(#SVGID_8_)"/></g><path d="m464.727 103.103-10.275-17.798c-.302-.523-.6-.916-1.004-1.304l-4.86 4.86c3.685 11.195-4.572 23.456-17.076 23.456-.092 0-.181-.008-.272-.009.14 9.263 7.588 17.694 17.957 17.694 13.804.001 22.432-14.944 15.53-26.899z" fill="url(#SVGID_9_)"/></g><g><path d="m41.581 481.856c-3.439-.941-7.449-.524-11.287 1.288-.031.016-.063.028-.094.044-1.383.658-2.649.418-3.401-.335-.753-.753-.993-2.018-.335-3.401.016-.031.028-.063.044-.094 1.812-3.838 2.229-7.848 1.288-11.287 1.539 2.896 3.488 5.56 5.857 7.929 2.368 2.368 5.033 4.317 7.928 5.856z" fill="url(#SVGID_10_)"/><path d="m67.218 472.325c-11.141 11.141-26.863 13.481-35.118 5.227-8.254-8.254-5.914-23.977 5.227-35.118s26.863-13.481 35.118-5.227 5.914 23.977-5.227 35.118z" fill="url(#SVGID_11_)"/><path d="m44.555 436.773 28.323 28.323c5.986-9.972 6.15-21.306-.434-27.889-6.583-6.584-17.917-6.421-27.889-.434z" fill="url(#SVGID_12_)"/><g><path d="m65.418 441.978-17.798-10.275c-11.955-6.902-26.9 1.726-26.9 15.531 0 13.805 14.944 22.433 26.9 15.531l17.798-10.275c4.046-2.337 4.046-8.177 0-10.512z" fill="url(#SVGID_13_)"/><path d="m65.419 452.489-2.744 1.584c.149-3.231-.594-6.576-2.411-9.723l-4.624-8.019 9.779 5.65c4.045 2.334 4.045 8.174 0 10.508z" fill="url(#SVGID_14_)"/><path d="m67.674 444.233 10.275 17.798c6.902 11.955-1.726 26.9-15.531 26.9-13.262 0-21.747-13.793-16.273-25.477l20.524-20.524c.405.387.703.78 1.005 1.303z" fill="url(#SVGID_15_)"/></g><path d="m77.949 462.031-10.275-17.798c-.302-.523-.6-.916-1.004-1.304l-4.86 4.86c3.685 11.195-4.572 23.456-17.076 23.456-.092 0-.181-.008-.272-.009.14 9.263 7.588 17.694 17.957 17.694 13.804 0 22.432-14.944 15.53-26.899z" fill="url(#SVGID_16_)"/></g><g><g><path d="m355.866 148.296h-201.73c-21.798 0-30.629-28.07-12.757-40.55 68.251-47.659 158.992-47.659 227.243 0 17.873 12.48 9.042 40.55-12.756 40.55z" fill="url(#SVGID_17_)"/><path d="m355.866 433.707h-201.73c-21.798 0-30.629 28.07-12.757 40.55 68.251 47.659 158.992 47.659 227.243 0 17.873-12.479 9.042-40.55-12.756-40.55z" fill="url(#SVGID_18_)"/><path d="m386.951 243.433h-263.9c-26.271 0-47.568-21.297-47.568-47.568 0-26.271 21.297-47.568 47.568-47.568h263.899c26.271 0 47.568 21.297 47.568 47.568.001 26.271-21.296 47.568-47.567 47.568z" fill="url(#SVGID_19_)"/><path d="m190.692 220.038-3.498 2.019c-8.065-2.696-16.159-1.682-21.326 3.485-4.432 4.432-5.8 11.018-4.401 17.89h54.333c1.138-2.334 1.791-4.985 1.791-7.864 0-13.804-14.944-22.432-26.899-15.53z" fill="url(#SVGID_20_)"/><path d="m419.603 338.57h-329.204c-26.271 0-47.568-21.297-47.568-47.568 0-26.271 21.297-47.568 47.568-47.568h329.204c26.271 0 47.568 21.297 47.568 47.568.001 26.271-21.297 47.568-47.568 47.568z" fill="url(#SVGID_21_)"/><path d="m170.523 338.57h119.955c-.411-32.781-27.099-59.232-59.978-59.232s-59.565 26.451-59.977 59.232z" fill="url(#SVGID_22_)"/><path d="m386.951 433.707h-263.9c-26.271 0-47.568-21.297-47.568-47.568 0-26.271 21.297-47.568 47.568-47.568h263.899c26.271 0 47.568 21.297 47.568 47.568.001 26.271-21.296 47.568-47.567 47.568z" fill="url(#SVGID_23_)"/></g><g><path d="m368.622 107.746c-68.251-47.659-158.992-47.659-227.243 0-2.429 1.696-4.348 3.686-5.825 5.849 62.433-27.279 135.683-20.895 193.048 19.162 5.785 4.04 8.757 9.713 9.413 15.539h17.851c21.798 0 30.629-28.07 12.756-40.55z" fill="url(#SVGID_24_)"/><path d="m355.866 433.707h-201.73c-14.742 0-23.539 12.839-22.169 25.011h183.879c18.836 0 27.973 20.953 18.582 34.701 11.848-5.177 23.308-11.56 34.195-19.162 17.872-12.479 9.041-40.55-12.757-40.55z" fill="url(#SVGID_25_)"/><path d="m386.951 148.296h-263.9c-18.127 0-33.883 10.142-41.911 25.059.628-.025 1.257-.048 1.891-.048h263.899c26.271 0 47.568 21.297 47.568 47.568 0 8.144-2.05 15.808-5.657 22.51 25.393-.994 45.677-21.884 45.677-47.521.001-26.271-21.296-47.568-47.567-47.568z" fill="url(#SVGID_26_)"/><path d="m419.603 243.433h-329.204c-18.127 0-33.883 10.142-41.911 25.059.628-.025 1.257-.048 1.891-.048h110.074c3.039 5.154 8.603 8.822 15.441 8.822 5.855 0 10.773-2.694 13.975-6.703 3.607.518 7.093.251 10.184-.838 2.574-.07 5.309.5 7.964 1.754.031.016.063.028.094.044 1.383.658 2.648.418 3.401-.335.631-.631.894-1.625.577-2.744h167.493c26.271 0 47.568 21.297 47.568 47.568 0 8.144-2.05 15.808-5.657 22.51 25.393-.994 45.677-21.884 45.677-47.521.002-26.271-21.296-47.568-47.567-47.568z" fill="url(#SVGID_27_)"/><path d="m386.951 338.57h-263.9c-18.127 0-33.883 10.142-41.911 25.059.628-.025 1.257-.048 1.891-.048h92.591c9.316 21.054 30.375 35.751 54.879 35.751s45.563-14.697 54.879-35.751h61.551c26.271 0 47.568 21.297 47.568 47.568 0 8.144-2.05 15.808-5.657 22.51 25.393-.994 45.677-21.884 45.677-47.521 0-26.271-21.297-47.568-47.568-47.568z" fill="url(#SVGID_28_)"/></g><circle cx="255.001" cy="339.335" fill="url(#SVGID_29_)" r="59.997"/><path d="m255.001 279.338c-4.29 0-8.471.459-12.505 1.315 27.131 5.754 47.491 29.837 47.491 58.682s-20.36 52.928-47.491 58.682c4.035.856 8.216 1.315 12.505 1.315 33.135 0 59.997-26.862 59.997-59.997s-26.862-59.997-59.997-59.997z" fill="url(#SVGID_30_)"/><g><path d="m223.404 242.565c-.941 3.439-.524 7.449 1.288 11.287.016.031.028.063.044.094.658 1.383.418 2.649-.335 3.401-.753.753-2.018.993-3.401.335-.031-.016-.063-.028-.094-.044-3.838-1.812-7.848-2.229-11.287-1.288 2.896-1.539 5.56-3.488 7.929-5.857 2.367-2.368 4.316-5.032 5.856-7.928z" fill="url(#SVGID_31_)"/><path d="m213.872 216.929c11.141 11.141 13.481 26.863 5.227 35.118-8.254 8.254-23.977 5.914-35.118-5.227s-13.481-26.863-5.227-35.118c8.255-8.254 23.977-5.914 35.118 5.227z" fill="url(#SVGID_32_)"/><path d="m178.321 239.591 28.323-28.323c-9.972-5.986-21.306-6.15-27.889.434s-6.421 17.918-.434 27.889z" fill="url(#SVGID_33_)"/><g><path d="m183.525 218.728-10.275 17.798c-6.902 11.955 1.726 26.9 15.531 26.9 13.805 0 22.433-14.944 15.531-26.9l-10.275-17.798c-2.336-4.045-8.176-4.045-10.512 0z" fill="url(#SVGID_34_)"/><path d="m194.036 218.728 1.584 2.744c-3.231-.148-6.576.594-9.723 2.411l-8.019 4.624 5.65-9.779c2.334-4.045 8.175-4.045 10.508 0z" fill="url(#SVGID_35_)"/><path d="m185.781 216.473 17.798-10.275c11.955-6.902 26.9 1.726 26.9 15.531 0 13.262-13.793 21.747-25.477 16.273l-20.524-20.524c.387-.405.779-.703 1.303-1.005z" fill="url(#SVGID_36_)"/></g><path d="m203.578 206.198-17.798 10.275c-.523.302-.916.6-1.304 1.004l4.86 4.86c11.195-3.685 23.456 4.572 23.456 17.076 0 .092-.008.181-.009.272 9.263-.14 17.694-7.588 17.694-17.957.001-13.805-14.943-22.433-26.899-15.53z" fill="url(#SVGID_37_)"/></g></g></g></svg>