<svg id="Capa_1" enable-background="new 0 0 512.002 512.002" height="512" viewBox="0 0 512.002 512.002" width="512" xmlns="http://www.w3.org/2000/svg"><g><g id="_x3C_Group_x3E__34_"><path d="m156.521 67.904h199v50.245h-199z" fill="#dce6eb"/><path d="m453.111 202.13h-396.06c3.9-8.88 8.27-17.65 13.08-26.28l1.06-1.91c20.3-36.44 42.18-60.39 83.89-60.39h201.88c41.71 0 80.16 22.59 100.46 59.04l1.06 1.9c3.68 6.61 7.07 13.33 10.16 20.14 1.13 2.49-15.53 7.5-15.53 7.5z" fill="#e9edf1"/><path d="m185.081 113.55c-41.71 0-80.16 22.59-100.46 59.04l-1.06 1.9c-5.03 9.03-9.5 18.25-13.42 27.64h-14.88c.93-2.19-12.85-5.33-11.86-7.5 3.09-6.81 6.48-13.53 10.16-20.14l1.06-1.9c20.3-36.45 58.75-59.04 100.46-59.04z" fill="#dce6eb"/><path d="m461.281 316.71c-.66 19.28 28.21 38.47 23.5 57.24-9.2 36.65-26.08 71.67-50.42 102.55l-.46.58c-13.66 17.32-47.09 20.47-69.14 20.47l-223.14 2.05c-22.05 0-43.54-5.67-57.2-22.98l1.54-4.09c-62.15-78.81-68.73-180.2-28.91-270.4h396.06s20.84 4.99 21.8 7.5c4.86 12.66 8.73 25.58 11.63 38.64 5 22.56-24.48 45.57-25.26 68.44z" fill="#ffbf54"/><path d="m437.451 472.5c-1.02 1.34-2.05 2.68-3.09 4l-.46.58c-13.66 17.32-34.49 27.42-56.54 27.42h-242.68c-22.05 0-42.88-10.1-56.54-27.42l-.46-.58c-24.35-30.88-41.22-65.9-50.42-102.55-5.38-21.43 2.11-42.88 2.02-64.93-.09-19.85-8.25-40.29-3.98-59.87 2.92-13.36 6.86-26.57 11.83-39.52 1.08-2.83 16.95-4.7 18.13-7.5h14.88c-34.46 82.4-26.39 176.74 21.74 252.14 7.29 11.43 20.01 18.23 33.56 18.23z" fill="#ffa442"/><path d="m371.234 68.545h-229.271c-6.677 0-12.09-5.413-12.09-12.09l-3.064-32.263c0-6.677 5.413-12.09 12.09-12.09l4.622-4.601h22.724l16.224 10.564 16.226-10.565h41.102l18.756 10.564 13.693-10.564h41.102l16.224 10.564 16.225-10.564h30.634c6.677 0 12.09 5.413 12.09 12.09v32.91l-5.197 3.955c0 6.677-5.413 12.09-12.09 12.09z" fill="#ffbf54"/><path d="m388.521 52.5v7.91c0 6.677-5.413 12.09-12.09 12.09h-30.634l-11.669-10-20.78 10h-41.102l-13.313-10-19.136 10h-41.102l-10.738-10-21.711 10h-30.634c-6.677 0-12.09-5.413-12.09-12.09v-40.82c0-6.677 5.413-12.09 12.09-12.09h7.91v39c0 3.314 2.686 6 6 6z" fill="#ffa442"/><path d="m27.269 373.95h81.993l146.76-17.599 146.76 17.599h81.993c10.299-41.027 10.975-84.092 1.757-125.677h-83.909l-144.956 26.131-148.244-26.131h-83.911c-4.319 19.483 6.802 38.531 6.799 58.301-.004 22.429-10.516 45.571-5.042 67.376z" fill="#c86d36"/><path d="m57.261 373.95h-29.99c-10.324-40.999-10.947-84.394-1.76-125.68h29.99c-9.22 41.59-8.54 84.65 1.76 125.68z" fill="#ac5e2e"/><g><path d="m474.911 209.63h-437.78c.961-2.509 11.02-5.01 12.06-7.5 1.049-2.512-6.92-5.014-5.79-7.5h425.24c2.25 4.95 4.34 9.96 6.27 15z" fill="#ffa442"/></g><g><path d="m73.401 194.63c-2.25 4.95-4.34 9.96-6.27 15h-30c1.949-5.062 4.02-10.066 6.27-15z" fill="#ff8a3c"/></g><path d="m415.601 311.29c0 22.23-4.57 43.41-12.82 62.66h-293.52c-8.25-19.25-12.82-40.43-12.82-62.66 0-22.37 4.63-43.68 12.98-63.02h293.2c8.35 19.34 12.98 40.65 12.98 63.02z" fill="#ac5e2e"/><path d="m395.602 311.29c0-77.088-62.492-139.581-139.581-139.581-37.663 0-71.842 14.917-96.951 39.165-26.284 25.383-32.262 64.92-32.262 104.345 0 77.088 52.125 124.631 129.213 124.631 34.191 0 65.51-1.273 89.779-21.681 30.45-25.603 49.802-63.981 49.802-106.879z" fill="#d77f4a"/><path d="m358.501 406.06c-25.5 27.56-61.97 44.81-102.48 44.81-77.09 0-139.58-62.49-139.58-139.58 0-47.56 23.78-89.56 60.1-114.77-23.03 24.89-37.1 58.18-37.1 94.77 0 77.09 62.49 139.58 139.58 139.58 29.53 0 56.92-9.17 79.48-24.81z" fill="#c86d36"/><g><path d="m214.349 241.248-20.679 11.939-11.574 13.853c-.928.536-1.5 1.526-1.5 2.598l-1.362 35.637c0 1.072.572 2.062 1.5 2.598l35.117 20.658 36.574-21.957 3.596-17.394v-25.604l-38.673-22.328c-.928-.536-2.071-.536-2.999 0z" fill="#ffbf54"/><path d="m256.021 289.18v20.78l-14.149 18.572-26.021 4.628-38.68-22.33c-.92-.54-1.5-1.53-1.5-2.6v-42.92c0-1.07.58-2.06 1.5-2.6l16.5-9.52v46.38l22.18 12.8z" fill="#ffa442"/><path d="m294.694 241.248-20.676 11.937-14.413 13.049 1.671 40.34 34.915 21.957 33.511-20.658c.928-.536 1.5-1.526 1.5-2.598l5.165-16.105v-23.862c0-1.072-.572-2.062-1.5-2.598l-37.173-21.462c-.928-.536-2.072-.536-3 0z" fill="#ffbf54"/><path d="m336.371 289.17v19.06c0 1.07-.58 2.06-1.5 2.6l-38.68 22.33-24.021-6.33-16.149-16.87v-46.38l18-10.39v46.38l22.17 12.8z" fill="#ffa442"/><path d="m256.021 309.963-22.169 12.799-11.385 10.397-.34 39.491c0 1.072.572 2.062 1.5 2.598l30.894 21.028c.928.536 2.072.536 3 0l33.372-19.728c.928-.536 1.5-1.526 1.5-2.598l3.801-15.19v-25.603z" fill="#ffbf54"/><path d="m296.191 358.76v19.05c0 1.07-.57 2.07-1.5 2.6l-37.17 21.46c-.93.54-2.07.54-3 0l-37.17-21.46c-.93-.53-1.5-1.53-1.5-2.6v-44.65l18-10.4v46.39l22.17 12.8z" fill="#ffa442"/></g><g><path d="m272.246 72.5-13.313-10-19.136 10v-65h32.449z" fill="#ffa442"/></g><g><path d="m198.695 72.5-16.229-10-16.22 10v-65h32.449z" fill="#ffa442"/></g><g><path d="m345.797 72.5-16.221-4.596-16.228 4.596v-65h32.449z" fill="#ffa442"/></g><g><path d="m239.801 52.5h32.44v20h-32.44z" fill="#ff8a3c"/></g><g><path d="m166.241 52.5h32.45v20h-32.45z" fill="#ff8a3c"/></g><g><path d="m313.351 52.5h32.45v20h-32.45z" fill="#ff8a3c"/></g></g><g><path d="m493.915 247.006c-5.693-26.111-16.077-53.722-29.944-78.07-20.621-37.014-58.908-60.631-100.95-62.715v-26.221h13.41c10.802 0 19.59-8.788 19.59-19.59v-40.82c0-10.802-8.788-19.59-19.59-19.59h-240.819c-10.802 0-19.59 8.788-19.59 19.59v40.82c0 10.802 8.788 19.59 19.59 19.59h13.41v26.217c-17.041.856-33.912 5.292-49.137 12.978-3.698 1.867-5.182 6.377-3.315 10.075 1.868 3.698 6.38 5.182 10.075 3.315 14.944-7.544 31.695-11.532 48.441-11.532h201.873c38.963 0 74.948 21.145 93.911 55.183 2.713 4.791 6.429 11.847 9.498 18.39h-114.892c-24.803-19.063-55.826-30.416-89.455-30.416s-64.651 11.353-89.455 30.416h-114.898c2.342-4.993 6.021-12.228 9.506-18.391 5.004-8.981 11.253-17.182 18.574-24.372 2.955-2.902 2.998-7.651.095-10.606-2.901-2.954-7.65-2.998-10.606-.095-8.344 8.195-15.465 17.539-21.166 27.772-27.484 48.33-40.231 104.994-35.644 160.811 4.426 55.402 24.955 107.754 59.37 151.399 14.568 18.994 38.352 31.02 62.886 30.856h242.677c23.975.099 47.97-11.345 62.888-30.858 4.953-6.283 9.691-12.849 14.081-19.517 2.278-3.459 1.32-8.111-2.14-10.388-3.459-2.278-8.111-1.32-10.388 2.14-4.156 6.313-8.642 12.529-13.33 18.476-11.657 15.308-31.191 25.315-51.11 25.148h-242.679c-19.276.101-39.046-9.254-51.109-25.146-21.662-27.471-37.246-58.205-46.621-90.404h89.692c9.671 17.806 23.09 33.65 39.769 46.481 3.284 2.527 7.993 1.912 10.518-1.371 2.526-3.283 1.912-7.992-1.371-10.518-32.261-24.765-51.663-63.215-51.619-104.752 0-72.83 59.251-132.081 132.081-132.081s132.081 59.251 132.081 132.081-59.251 132.081-132.081 132.081c-18.01 0-35.465-3.559-51.879-10.576-3.806-1.627-8.215.139-9.844 3.948-1.628 3.809.139 8.216 3.948 9.844 18.289 7.819 37.727 11.784 57.776 11.784 55.712 0 104.287-31.137 129.241-76.921h89.719c-4.184 14.423-9.614 28.582-16.307 42.311-1.815 3.724-.268 8.213 3.455 10.028 2.633 1.459 7.664.729 10.028-3.455 28.057-57.559 35.207-122.251 21.756-183.329zm-173.067-182.006v-50h17.449v50zm-41.102 0v-50h26.102v50zm-32.449 0v-50h17.449v50zm-41.102 0v-50h26.102v50zm-32.449 0v-50h17.449v50zm207.275-45.41v40.82c0 2.531-2.059 4.59-4.59 4.59h-23.134v-50h23.134c2.531 0 4.59 2.059 4.59 4.59zm-250 40.82v-40.82c0-2.531 2.059-4.59 4.59-4.59h23.134v50h-23.134c-2.531 0-4.59-2.059-4.59-4.59zm217 19.59v26.053h-184v-26.053zm-198.187 129.626c-8.91 9.302-16.611 19.77-22.853 31.147h-92.02c2.739-10.513 6.13-20.916 10.197-31.147zm-116.782 156.824c-8.286-36.244-8.862-73.957-1.541-110.677h88.32c-7.013 17.14-10.89 35.883-10.89 55.518 0 19.271 3.685 37.921 10.635 55.16h-86.524zm359.307 0c6.92-17.043 10.743-35.662 10.743-55.16 0-19.634-3.877-38.377-10.89-55.518h26.426c4.142 0 7.5-3.358 7.5-7.5s-3.358-7.5-7.5-7.5h-33.576c-6.242-11.377-13.943-21.845-22.853-31.147h104.638c4.041 10.207 7.429 20.609 10.158 31.147h-23.302c-4.142 0-7.5 3.358-7.5 7.5s3.358 7.5 7.5 7.5h26.724c7.229 36.512 6.733 74.248-1.563 110.677h-86.505z"/><path d="m213.598 386.906 37.172 21.461c1.62.936 3.436 1.403 5.252 1.403 1.815 0 3.631-.468 5.249-1.403l37.174-21.462c3.238-1.87 5.249-5.354 5.249-9.093v-40.326l34.923-20.163c3.238-1.87 5.249-5.354 5.249-9.093v-42.923c0-3.74-2.012-7.225-5.25-9.093l-37.174-21.463c-3.237-1.868-7.259-1.868-10.499.001l-34.923 20.163-34.922-20.162c-3.239-1.871-7.263-1.871-10.501 0l-37.171 21.461c-3.239 1.869-5.251 5.354-5.251 9.094v42.924c0 3.739 2.011 7.223 5.25 9.093l34.923 20.163v40.326c0 3.738 2.012 7.222 5.25 9.092zm75.097-11.691-32.673 18.863-32.673-18.863v-37.728l32.673-18.864 32.673 18.864zm7.499-126.173 32.673 18.864v37.727l-32.673 18.864-32.673-18.864v-37.728zm-113.018 18.864 32.673-18.864 32.673 18.863v37.728l-32.673 18.864-32.673-18.864z"/></g></g></svg>