<?xml version="1.0" encoding="iso-8859-1"?>
<!-- Generator: Adobe Illustrator 19.0.0, SVG Export Plug-In . SVG Version: 6.00 Build 0)  -->
<svg version="1.1" id="Layer_1" xmlns="http://www.w3.org/2000/svg" xmlns:xlink="http://www.w3.org/1999/xlink" x="0px" y="0px"
	 viewBox="0 0 512 512" style="enable-background:new 0 0 512 512;" xml:space="preserve">
<g>
	<polygon style="fill:#F3D55B;" points="128,0 0,73.143 0,219.429 128,292.571 256,219.429 255.808,54.857 	"/>
	<polygon style="fill:#F29C1F;" points="384,0 256,54.857 256,219.429 384,292.571 512,219.429 511.808,73.143 	"/>
	<polygon style="fill:#E57E25;" points="256,219.429 128,292.571 128,438.857 256,512 384,438.857 383.808,292.571 	"/>
	<g>
		<path style="fill:#F29C1F;" d="M127.991,265.143c-1.6,0-3.227-0.421-4.699-1.307l-45.714-27.429
			c-4.325-2.597-5.733-8.21-3.127-12.544c2.597-4.315,8.21-5.733,12.544-3.127l45.714,27.429c4.325,2.597,5.733,8.21,3.127,12.544
			C134.126,263.561,131.099,265.143,127.991,265.143"/>
		<path style="fill:#F29C1F;" d="M54.848,219.429c-1.591,0-3.2-0.411-4.654-1.28l-3.538-2.085
			c-17.883-10.505-19.502-13.422-19.282-34.697l0.055-7.653c0-5.047,4.087-9.143,9.143-9.143s9.143,4.096,9.143,9.143l-0.055,7.845
			c-0.137,12.635-0.137,12.635,10.258,18.743l3.602,2.121c4.343,2.578,5.778,8.183,3.2,12.526
			C61.01,217.829,57.975,219.429,54.848,219.429"/>
		<path style="fill:#F29C1F;" d="M36.571,146.286c-5.056,0-9.143-4.096-9.143-9.143V91.429c0-5.047,4.087-9.143,9.143-9.143
			s9.143,4.096,9.143,9.143v45.714C45.714,142.19,41.627,146.286,36.571,146.286"/>
	</g>
	<g>
		<path style="fill:#E57E25;" d="M384.08,265.143c-1.6,0-3.227-0.421-4.699-1.307l-45.714-27.429
			c-4.325-2.597-5.733-8.21-3.127-12.544c2.587-4.315,8.21-5.733,12.544-3.127l45.714,27.429c4.325,2.597,5.733,8.21,3.127,12.544
			C390.215,263.561,387.189,265.143,384.08,265.143"/>
		<path style="fill:#E57E25;" d="M310.938,219.429c-1.591,0-3.2-0.411-4.654-1.28l-3.538-2.085
			c-17.883-10.505-19.502-13.422-19.282-34.697l0.055-7.653c0-5.047,4.087-9.143,9.143-9.143s9.143,4.096,9.143,9.143l-0.055,7.845
			c-0.137,12.635-0.137,12.635,10.258,18.743l3.602,2.121c4.343,2.578,5.778,8.183,3.2,12.526
			C317.1,217.829,314.064,219.429,310.938,219.429"/>
		<path style="fill:#E57E25;" d="M292.661,146.286c-5.056,0-9.143-4.096-9.143-9.143V91.429c0-5.047,4.087-9.143,9.143-9.143
			s9.143,4.096,9.143,9.143v45.714C301.804,142.19,297.717,146.286,292.661,146.286"/>
	</g>
	<g>
		<path style="fill:#F3D55B;" d="M255.991,484.571c-1.6,0-3.227-0.421-4.699-1.307l-45.714-27.429
			c-4.325-2.597-5.733-8.21-3.127-12.544c2.597-4.325,8.201-5.733,12.544-3.127l45.714,27.429c4.325,2.597,5.733,8.21,3.127,12.544
			C262.126,482.99,259.099,484.571,255.991,484.571"/>
		<path style="fill:#F3D55B;" d="M182.848,438.857c-1.591,0-3.2-0.411-4.654-1.28l-3.538-2.085
			c-17.883-10.505-19.502-13.422-19.282-34.697l0.055-7.653c0-5.047,4.087-9.143,9.143-9.143c5.056,0,9.143,4.096,9.143,9.143
			l-0.055,7.845c-0.137,12.635-0.137,12.635,10.258,18.743l3.602,2.121c4.343,2.578,5.778,8.183,3.2,12.526
			C189.01,437.257,185.975,438.857,182.848,438.857"/>
		<path style="fill:#F3D55B;" d="M164.571,365.714c-5.056,0-9.143-4.096-9.143-9.143v-45.714c0-5.047,4.087-9.143,9.143-9.143
			c5.056,0,9.143,4.096,9.143,9.143v45.714C173.714,361.618,169.627,365.714,164.571,365.714"/>
	</g>
</g>
<g>
</g>
<g>
</g>
<g>
</g>
<g>
</g>
<g>
</g>
<g>
</g>
<g>
</g>
<g>
</g>
<g>
</g>
<g>
</g>
<g>
</g>
<g>
</g>
<g>
</g>
<g>
</g>
<g>
</g>
</svg>
