<svg id="Capa_1" data-name="Capa 1" xmlns="http://www.w3.org/2000/svg" viewBox="0 0 512 512"><defs><style>.cls-1{fill:#d84315;}.cls-2{fill:#ff5722;}.cls-3{fill:#ffb301;}.cls-4{fill:#fec108;}.cls-5{fill:#f57c00;}.cls-6{fill:#ff9801;}.cls-7{fill:#4b414b;}.cls-8{fill:#6e555e;}.cls-9{fill:#ffdc64;}.cls-10{fill:#ffc850;}.cls-11{fill:#5f4b55;}.cls-12{fill:#e4eaf8;}.cls-13{fill:#d5dced;}</style></defs><rect class="cls-1" x="51.2" y="420.95" width="51.2" height="82.52"/><rect class="cls-1" x="409.6" y="420.95" width="51.2" height="82.52"/><rect class="cls-2" x="51.2" y="420.95" width="25.6" height="82.52"/><rect class="cls-2" x="409.6" y="420.95" width="25.6" height="82.52"/><path class="cls-1" d="M503.47,512H8.53a8.54,8.54,0,0,1,0-17.07H503.47a8.54,8.54,0,0,1,0,17.07Z"/><polygon class="cls-3" points="503.47 247.47 477.87 247.47 503.47 349.87 477.87 349.87 503.47 452.27 8.53 452.27 34.13 349.87 8.53 349.87 34.13 247.47 8.53 247.47 34.13 145.07 8.53 145.07 34.13 42.67 34.13 17.07 477.87 17.07 477.87 42.67 503.47 145.07 477.87 145.07 503.47 247.47"/><polygon class="cls-4" points="477.87 247.47 452.27 247.47 477.87 349.87 452.27 349.87 477.87 452.27 8.53 452.27 34.13 349.87 8.53 349.87 34.13 247.47 8.53 247.47 34.13 145.07 8.53 145.07 34.13 17.07 452.27 17.07 452.27 42.67 477.87 145.07 452.27 145.07 477.87 247.47"/><polygon class="cls-5" points="503.47 145.07 8.53 145.07 34.13 42.67 477.87 42.67 503.47 145.07"/><polygon class="cls-5" points="503.47 349.87 8.53 349.87 34.13 247.47 477.87 247.47 503.47 349.87"/><polygon class="cls-6" points="477.87 145.07 8.53 145.07 34.13 42.67 452.27 42.67 477.87 145.07"/><polygon class="cls-6" points="477.87 349.87 8.53 349.87 34.13 247.47 452.27 247.47 477.87 349.87"/><path class="cls-1" d="M290.13,418.13v34.14H221.87V418.13a33.92,33.92,0,0,1,21.33-31.57A32.16,32.16,0,0,1,256,384,34.13,34.13,0,0,1,290.13,418.13Z"/><path class="cls-1" d="M17.07,8.53H494.93a8.54,8.54,0,0,1,8.54,8.54V34.13a8.54,8.54,0,0,1-8.54,8.54H17.07a8.54,8.54,0,0,1-8.54-8.54V17.07A8.54,8.54,0,0,1,17.07,8.53Z"/><path class="cls-2" d="M264.53,418.13v34.14H221.87V418.13a33.92,33.92,0,0,1,21.33-31.57A33.92,33.92,0,0,1,264.53,418.13Z"/><path class="cls-2" d="M17.07,8.53H469.33a8.54,8.54,0,0,1,8.54,8.54V34.13a8.54,8.54,0,0,1-8.54,8.54H17.07a8.54,8.54,0,0,1-8.54-8.54V17.07A8.54,8.54,0,0,1,17.07,8.53Z"/><path d="M494.93,0H17.07A17.07,17.07,0,0,0,0,17.07V34.13A17.07,17.07,0,0,0,17.07,51.2h6.14L.26,143A8.53,8.53,0,0,0,8.53,153.6H23.21L.26,245.39A8.53,8.53,0,0,0,8.53,256H23.21L.26,347.79A8.53,8.53,0,0,0,8.53,358.4H23.21L.26,450.19A8.53,8.53,0,0,0,8.53,460.8H42.67v34.13H8.53a8.54,8.54,0,0,0,0,17.07H503.47a8.54,8.54,0,0,0,0-17.07H469.33V460.8h34.14a8.53,8.53,0,0,0,8.27-10.61L488.79,358.4h14.68a8.53,8.53,0,0,0,8.27-10.61L488.79,256h14.68a8.53,8.53,0,0,0,8.27-10.61L488.79,153.6h14.68A8.53,8.53,0,0,0,511.74,143L488.79,51.2h6.14A17.07,17.07,0,0,0,512,34.13V17.07A17.07,17.07,0,0,0,494.93,0ZM59.73,494.93V460.8H93.87v34.13ZM221.87,460.8h179.2v34.13H110.93V460.8Zm59.73-17.07H230.4v-25.6a25.6,25.6,0,0,1,51.2,0Zm170.67,51.2H418.13V460.8h34.14Zm40.27-358.4H452.27a8.54,8.54,0,1,0,0,17.07h18.94l21.33,85.33H452.27a8.54,8.54,0,1,0,0,17.07h18.94l21.33,85.33H452.27a8.54,8.54,0,1,0,0,17.07h18.94l21.33,85.33H298.67v-25.6a42.67,42.67,0,0,0-85.34,0v25.6H19.47L40.8,358.4H401.07a8.54,8.54,0,0,0,0-17.07H19.47L40.8,256H401.07a8.54,8.54,0,0,0,0-17.07H19.47L40.8,153.6H401.07a8.54,8.54,0,0,0,0-17.07H19.47L40.8,51.2H471.2ZM477.87,34.13H17.07V17.07H494.93V34.13Z"/><path class="cls-7" d="M350.6,375.22a1.17,1.17,0,0,1-1-.49,27.89,27.89,0,0,0-13.41-10.09,1.17,1.17,0,1,1,.64-2.25,29.84,29.84,0,0,1,14.68,11,1.17,1.17,0,0,1-.28,1.63A1.13,1.13,0,0,1,350.6,375.22Z"/><path class="cls-7" d="M355.28,375.22a1.17,1.17,0,0,1-.95-1.85,29.84,29.84,0,0,1,14.68-11,1.17,1.17,0,0,1,.64,2.25,28,28,0,0,0-13.41,10.09A1.18,1.18,0,0,1,355.28,375.22Z"/><ellipse class="cls-8" cx="352.94" cy="377.22" rx="6.49" ry="6.19"/><ellipse class="cls-9" cx="352.94" cy="384.58" rx="10.53" ry="9.36"/><path class="cls-10" d="M348.26,384.58c0-4.26,3.22-7.86,7.61-9a12.18,12.18,0,0,0-2.93-.37c-5.81,0-10.53,4.19-10.53,9.36s4.72,9.37,10.53,9.37a11.7,11.7,0,0,0,2.93-.38C351.48,392.44,348.26,388.85,348.26,384.58Z"/><ellipse class="cls-8" cx="352.94" cy="415.01" rx="17.55" ry="21.07"/><path class="cls-11" d="M347.09,415c0-8.51,2.58-16.09,6.6-21-.25,0-.49,0-.75,0-9.69,0-17.55,9.43-17.55,21.06s7.86,21.07,17.55,21.07c.26,0,.5,0,.75-.05C349.67,431.1,347.09,423.52,347.09,415Z"/><path class="cls-9" d="M352.94,412.67a26.86,26.86,0,0,0,16.33-5.35c-2.56-7.83-8.9-13.37-16.33-13.37s-13.76,5.54-16.33,13.37A26.9,26.9,0,0,0,352.94,412.67Z"/><path class="cls-10" d="M352.94,394a16.14,16.14,0,0,0-12.42,6.23h0a.86.86,0,0,0-.07.1c-.32.39-.64.8-.93,1.22h0a22.12,22.12,0,0,0-2.91,5.81,26.31,26.31,0,0,0,10.59,4.75c.09-1.18.22-2.33.41-3.46a2.35,2.35,0,0,1,2.59-1.93,26.71,26.71,0,0,0,2.74.14c6.34,0,11.05-1.95,13.44-5.32C363.17,396.89,358.35,394,352.94,394Z"/><path class="cls-7" d="M361.14,394H344.75a1.2,1.2,0,0,1-.68-.22l-7.25-5.15a3.56,3.56,0,0,1-1.43-2.83v-1.37a1.19,1.19,0,0,0-.34-.83l-6.34-6.33a1.17,1.17,0,0,1,0-1.66,1.19,1.19,0,0,1,1.66,0l6.33,6.34a3.5,3.5,0,0,1,1,2.48v1.37a1.16,1.16,0,0,0,.47.94l6.92,4.92h15.64l7-4.94a1.18,1.18,0,0,0,.44-.92v-1.37a3.46,3.46,0,0,1,1-2.48l6.33-6.34a1.19,1.19,0,0,1,1.66,0,1.17,1.17,0,0,1,0,1.66l-6.34,6.33a1.19,1.19,0,0,0-.34.83v1.37a3.53,3.53,0,0,1-1.41,2.81l-7.28,5.17A1.14,1.14,0,0,1,361.14,394Z"/><path class="cls-7" d="M382.2,403.31a1.19,1.19,0,0,1-.75-.27l-6-5a2.34,2.34,0,0,0-1.5-.54H332a2.34,2.34,0,0,0-1.5.54l-6,5a1.18,1.18,0,0,1-1.65-.15,1.16,1.16,0,0,1,.15-1.65l6-5a4.7,4.7,0,0,1,3-1.08h41.93a4.7,4.7,0,0,1,3,1.08l6,5a1.16,1.16,0,0,1,.15,1.65A1.15,1.15,0,0,1,382.2,403.31Z"/><path class="cls-9" d="M370.47,414.22c-3.78,3.64-10.22,6-17.53,6s-13.74-2.4-17.52-6c0,.29,0,.58,0,.87,0,.86,0,1.71.11,2.54,4.29,5.56,10.5,9.09,17.44,9.09s13.16-3.53,17.45-9.09c.07-.83.11-1.68.11-2.54C370.5,414.8,370.47,414.51,370.47,414.22Z"/><path class="cls-10" d="M347.4,419.77a23.12,23.12,0,0,1-12-5.55h0c0,.27,0,.54,0,.82a23,23,0,0,0,.16,2.64,22.77,22.77,0,0,0,13.17,8.57A36.56,36.56,0,0,1,347.4,419.77Z"/><path class="cls-12" d="M332.46,421.45l-9.62,4.62a4.31,4.31,0,0,1-6.18-3.87h0a11.75,11.75,0,0,1,3.43-8.28L341,393.07l.49,4.92Z"/><path class="cls-13" d="M341.09,394.53l-8.16,14.77-7.5,1.84a23.93,23.93,0,0,0-3.92,1.37l-1.42,1.41a11.87,11.87,0,0,0-2.43,3.59l.15-.12a21.49,21.49,0,0,1,8.18-4l5.4-1.33-1,1.84a26.91,26.91,0,0,1-6.79,8l-4.89,3.9a4.27,4.27,0,0,0,4.14.21l9.62-4.62,9-23.46Z"/><path class="cls-12" d="M341.44,398l-9.65,22.34a2.35,2.35,0,0,0,3,3.11l4.53-1.81a3.52,3.52,0,0,0,2.17-2.8l2.36-17.91Z"/><path class="cls-13" d="M337.26,422.46l2.08-.83a3.52,3.52,0,0,0,2.17-2.8l2.36-17.91-1.63-2Z"/><path class="cls-12" d="M373.42,421.45l9.63,4.62a4.3,4.3,0,0,0,6.17-3.87h0a11.74,11.74,0,0,0-3.42-8.28l-20.86-20.85-.49,4.92Z"/><path class="cls-13" d="M364.8,394.53,373,409.3l7.5,1.84a24.26,24.26,0,0,1,3.92,1.37l1.42,1.41a11.87,11.87,0,0,1,2.43,3.59l-.15-.12a21.56,21.56,0,0,0-8.18-4l-5.4-1.33,1,1.84a26.77,26.77,0,0,0,6.79,8l4.89,3.9a4.27,4.27,0,0,1-4.14.21l-9.63-4.62-9-23.46Z"/><path class="cls-12" d="M364.45,398l9.65,22.34a2.35,2.35,0,0,1-3,3.11l-4.53-1.81a3.5,3.5,0,0,1-2.17-2.8L362,400.92Z"/><path class="cls-13" d="M368.63,422.46l-2.08-.83a3.5,3.5,0,0,1-2.17-2.8L362,400.92l1.64-2Z"/><path class="cls-8" d="M352.94,384.58c7.11,0,12.88,5,12.88,11.12s-5.77,8.78-12.88,8.78-12.87-2.64-12.87-8.78S345.83,384.58,352.94,384.58Z"/><path class="cls-11" d="M348.26,393a13.21,13.21,0,0,1,2.91-8.28c-6.27.75-11.1,5.38-11.1,11,0,6.14,5.76,8.78,12.87,8.78a20.26,20.26,0,0,0,7.29-1.2C353.54,403,348.26,399.89,348.26,393Z"/><path class="cls-7" d="M169.68,280a1.17,1.17,0,0,1-.28-1,27.75,27.75,0,0,0-1.56-16.71,1.17,1.17,0,1,1,2.1-1,29.84,29.84,0,0,1,1.75,18.25,1.18,1.18,0,0,1-2,.54Z"/><path class="cls-7" d="M172.82,283.49a1.21,1.21,0,0,1-.29-.65,1.17,1.17,0,0,1,1-1.3,29.89,29.89,0,0,1,18,3.48,1.17,1.17,0,1,1-1.23,2,28,28,0,0,0-16.49-3.14A1.21,1.21,0,0,1,172.82,283.49Z"/><ellipse class="cls-8" cx="169.77" cy="283.1" rx="6.19" ry="6.49" transform="matrix(0.74, -0.67, 0.67, 0.74, -146.26, 187.75)"/><ellipse class="cls-9" cx="164.32" cy="288.05" rx="9.36" ry="10.53" transform="translate(-151.01 185.37) rotate(-42.26)"/><path class="cls-10" d="M161.17,284.59c3.16-2.87,8-2.91,11.77-.41a11.86,11.86,0,0,0-1.69-2.42c-3.91-4.31-10.19-5-14-1.5s-3.76,9.79.15,14.09a11.94,11.94,0,0,0,2.25,1.92C157.52,292.26,158,287.46,161.17,284.59Z"/><ellipse class="cls-8" cx="141.8" cy="308.52" rx="21.07" ry="17.55" transform="translate(-170.62 175.55) rotate(-42.26)"/><path class="cls-11" d="M137.87,304.19c6.29-5.72,13.64-8.91,20-9.26-.16-.19-.3-.39-.47-.58-6.52-7.17-18.78-6.65-27.39,1.18s-10.31,20-3.79,27.16c.17.18.36.34.53.52C127.69,316.91,131.57,309.91,137.87,304.19Z"/><path class="cls-9" d="M143.53,306.94a26.85,26.85,0,0,0,14.95,8.49c4.06-7.16,3.91-15.58-1.09-21.08s-13.36-6.46-20.88-3.09A26.88,26.88,0,0,0,143.53,306.94Z"/><path class="cls-10" d="M157.39,294.35a16.13,16.13,0,0,0-13-5h-.12c-.51,0-1,.07-1.53.14h0a22.19,22.19,0,0,0-6.25,1.76,26.29,26.29,0,0,0,3.61,11c.93-.73,1.88-1.41,2.83-2a2.36,2.36,0,0,1,3.17.62,27.14,27.14,0,0,0,1.74,2.13c4.27,4.69,8.87,6.86,13,6.37C162.09,303.9,161,298.35,157.39,294.35Z"/><path class="cls-7" d="M162.9,300.41l-11-12.12a1.21,1.21,0,0,1-.29-.65l-1.07-8.83a3.52,3.52,0,0,1,1.13-3l1-.92a1.16,1.16,0,0,0,.39-.81l.42-8.95a1.18,1.18,0,0,1,1.23-1.12,1.17,1.17,0,0,1,1.11,1.23l-.43,9a3.47,3.47,0,0,1-1.14,2.43l-1,.92a1.16,1.16,0,0,0-.37,1l1,8.43,10.51,11.57,8.33,1.83a1.17,1.17,0,0,0,1-.29l1-.92a3.52,3.52,0,0,1,2.53-.91l9,.43a1.17,1.17,0,0,1-.11,2.34l-8.95-.43a1.18,1.18,0,0,0-.84.3l-1,.92a3.51,3.51,0,0,1-3,.85l-8.72-1.91A1.15,1.15,0,0,1,162.9,300.41Z"/><path class="cls-7" d="M170.14,322.3a1.13,1.13,0,0,1-.3-.74l-.34-7.86a2.37,2.37,0,0,0-.61-1.47l-28.2-31a2.31,2.31,0,0,0-1.4-.75l-7.8-1.08a1.17,1.17,0,0,1,.32-2.32l7.8,1.08a4.76,4.76,0,0,1,2.82,1.49l28.2,31a4.7,4.7,0,0,1,1.21,2.94l.33,7.86a1.16,1.16,0,0,1-1.11,1.22A1.13,1.13,0,0,1,170.14,322.3Z"/><path class="cls-9" d="M154.17,321c-5.23-.35-11.34-3.5-16.25-8.91s-7.47-11.79-7.32-17c-.22.19-.45.36-.66.56-.64.58-1.24,1.18-1.81,1.79-1.23,6.91.34,13.88,5,19s11.46,7.37,18.45,6.8c.67-.51,1.32-1.05,2-1.62Z"/><path class="cls-10" d="M134.55,307.61a23.09,23.09,0,0,1-4-12.59h0c-.21.18-.43.35-.63.53-.66.61-1.27,1.24-1.85,1.89A22.84,22.84,0,0,0,130.63,313,37.67,37.67,0,0,1,134.55,307.61Z"/><path class="cls-12" d="M123.26,297.69l-9.89-4a4.3,4.3,0,0,1-1.29-7.17h0a11.69,11.69,0,0,1,8.43-3L150,284.88l-3.31,3.68Z"/><path class="cls-13" d="M149,286l-16.42,3.9-6.41-4.31a24.33,24.33,0,0,0-3.64-2l-2-.1a11.72,11.72,0,0,0-4.29.61l.2,0a21.73,21.73,0,0,1,8.44,3.39l4.61,3.1-2,.49a27.2,27.2,0,0,1-10.52.38l-6.16-1a4.25,4.25,0,0,0,2.62,3.2l9.89,4,23.4-9.13Z"/><path class="cls-12" d="M146.66,288.56l-23,7.88a2.34,2.34,0,0,0-.27,4.32l4.38,2.13a3.51,3.51,0,0,0,3.54-.26l14.84-10.3Z"/><path class="cls-13" d="M125.74,301.92l2,1a3.51,3.51,0,0,0,3.54-.26l14.84-10.3.35-2.53Z"/><path class="cls-12" d="M150.81,328l3.05,10.24a4.3,4.3,0,0,0,7,2h0a11.68,11.68,0,0,0,3.82-8.1l1.41-29.46-4,2.95Z"/><path class="cls-13" d="M164.93,303.52l-5.44,16,3.68,6.79a23.66,23.66,0,0,1,1.62,3.82l-.09,2a11.87,11.87,0,0,1-1,4.21l0-.19a21.61,21.61,0,0,0-2.56-8.73l-2.65-4.89-.68,2a27,27,0,0,0-1.38,10.43l.41,6.23a4.27,4.27,0,0,1-2.95-2.91L150.81,328l11.33-22.41Z"/><path class="cls-12" d="M162.14,305.59l-10,22.16a2.34,2.34,0,0,1-4.33-.14l-1.7-4.57a3.51,3.51,0,0,1,.6-3.49l11.67-13.8Z"/><path class="cls-13" d="M146.84,325.13l-.78-2.09a3.51,3.51,0,0,1,.6-3.49l11.67-13.8,2.55-.11Z"/><path class="cls-8" d="M164.32,288.06c4.78,5.26,5,12.87.43,17s-10.37,1.64-15.15-3.62-6.71-11.31-2.16-15.44S159.54,282.79,164.32,288.06Z"/><path class="cls-11" d="M155,290.24a13.15,13.15,0,0,1,8.08-3.42c-4.76-4.13-11.45-4.6-15.6-.82-4.55,4.13-2.62,10.17,2.16,15.43a20.19,20.19,0,0,0,5.78,4.59C151.08,300.9,149.84,294.89,155,290.24Z"/><path class="cls-7" d="M397,90.16a1.18,1.18,0,0,1-.89.61,27.84,27.84,0,0,0-15.25,7,1.17,1.17,0,1,1-1.67-1.64,29.79,29.79,0,0,1,16.63-7.69A1.17,1.17,0,0,1,397,90.16Z"/><path class="cls-7" d="M399.19,86.05a1.21,1.21,0,0,1-.51.49,1.16,1.16,0,0,1-1.57-.54,29.81,29.81,0,0,1-2.68-18.12,1.17,1.17,0,0,1,2.28.5,28,28,0,0,0,2.5,16.6A1.15,1.15,0,0,1,399.19,86.05Z"/><ellipse class="cls-8" cx="399.84" cy="89.06" rx="6.49" ry="6.19" transform="translate(131.47 398.54) rotate(-61.63)"/><ellipse class="cls-9" cx="406.32" cy="92.55" rx="10.53" ry="9.36" transform="translate(131.8 406.08) rotate(-61.63)"/><path class="cls-10" d="M404.09,96.67c-3.75-2-5.39-6.56-4.29-11a11.46,11.46,0,0,0-1.72,2.4c-2.77,5.11-1.32,11.26,3.23,13.71s10.48.3,13.24-4.82a11.77,11.77,0,0,0,1.07-2.75C412.54,97.58,407.85,98.7,404.09,96.67Z"/><ellipse class="cls-8" cx="433.09" cy="107.01" rx="17.55" ry="21.07" transform="translate(133.12 437.23) rotate(-61.63)"/><path class="cls-11" d="M430.31,112.16c-7.49-4-12.93-9.91-15.36-15.79-.13.21-.28.41-.4.63-4.6,8.53,0,19.93,10.2,25.46s22.27,3.1,26.88-5.43c.12-.23.2-.46.31-.68C445.69,117.54,437.8,116.21,430.31,112.16Z"/><path class="cls-9" d="M431,105.9A26.86,26.86,0,0,0,434.08,89c-8.1-1.46-16,1.48-19.53,8s-1.66,14.75,4,20.73A26.85,26.85,0,0,0,431,105.9Z"/><path class="cls-10" d="M414.56,97a16.11,16.11,0,0,0-.42,13.9h0l.05.11c.2.48.4.94.64,1.41h0a22.08,22.08,0,0,0,3.73,5.32,26.28,26.28,0,0,0,9.21-7.06c-1-.64-1.95-1.31-2.85-2a2.36,2.36,0,0,1-.47-3.2,25.26,25.26,0,0,0,1.43-2.35c3-5.57,3.54-10.64,1.71-14.35C422,89.41,417.12,92.25,414.56,97Z"/><path class="cls-7" d="M418.45,89.8l-7.79,14.41a1.12,1.12,0,0,1-.51.5l-8,3.93a3.54,3.54,0,0,1-3.17-.08l-1.2-.65a1.16,1.16,0,0,0-.89-.1l-8.59,2.57a1.18,1.18,0,0,1-1.46-.79,1.17,1.17,0,0,1,.79-1.45l8.59-2.57a3.45,3.45,0,0,1,2.67.28l1.21.65a1.19,1.19,0,0,0,1,0l7.62-3.76L416.21,89l-1-8.46a1.18,1.18,0,0,0-.59-.83l-1.21-.65a3.49,3.49,0,0,1-1.7-2.08l-2.56-8.59A1.17,1.17,0,0,1,409.9,67a1.15,1.15,0,0,1,1.45.78l2.57,8.59a1.17,1.17,0,0,0,.56.69l1.21.65a3.53,3.53,0,0,1,1.8,2.58l1.09,8.86A1.22,1.22,0,0,1,418.45,89.8Z"/><path class="cls-7" d="M436.7,75.71a1.2,1.2,0,0,1-.6.53l-7.3,2.93a2.28,2.28,0,0,0-1.19,1.06l-19.93,36.89a2.32,2.32,0,0,0-.23,1.57l1.56,7.72a1.17,1.17,0,1,1-2.3.46l-1.56-7.71a4.72,4.72,0,0,1,.47-3.15l19.93-36.9A4.7,4.7,0,0,1,427.93,77l7.3-2.92a1.17,1.17,0,0,1,1.52.65A1.14,1.14,0,0,1,436.7,75.71Z"/><path class="cls-9" d="M440.72,91.22c1.41,5.06.46,11.86-3,18.29s-8.64,10.95-13.64,12.55c.25.14.49.3.75.44.76.41,1.52.77,2.29,1.11,6.93-1.13,13-4.93,16.28-11s3.15-13.26.3-19.67c-.71-.46-1.43-.89-2.19-1.3C441.25,91.47,441,91.35,440.72,91.22Z"/><path class="cls-10" d="M434.64,114.16a23.1,23.1,0,0,1-10.57,7.9h0l.7.42c.79.42,1.59.78,2.4,1.12a22.85,22.85,0,0,0,13.8-7.52A37.81,37.81,0,0,1,434.64,114.16Z"/><path class="cls-12" d="M429,128.09l-.51,10.67a4.3,4.3,0,0,1-6.34,3.59h0a11.68,11.68,0,0,1-5.65-6.95l-8.44-28.26,4.57,1.91Z"/><path class="cls-13" d="M409.44,107.71l9.11,14.2-1.94,7.47a24.14,24.14,0,0,0-.66,4.1l.57,1.92a11.69,11.69,0,0,0,2,3.85l0-.19a21.78,21.78,0,0,1,.4-9.09l1.4-5.38,1.13,1.77a26.83,26.83,0,0,1,3.84,9.79l1.11,6.15a4.26,4.26,0,0,0,2.15-3.54l.51-10.67-16.37-19Z"/><path class="cls-12" d="M412.65,109.05l15.07,19.11a2.34,2.34,0,0,0,4.16-1.18l.56-4.85a3.5,3.5,0,0,0-1.42-3.24L416.38,108.3Z"/><path class="cls-13" d="M432.19,124.35l.25-2.22a3.5,3.5,0,0,0-1.42-3.24L416.38,108.3l-2.5.5Z"/><path class="cls-12" d="M448.49,92.05l8.64-6.27a4.3,4.3,0,0,0-.47-7.27h0a11.68,11.68,0,0,0-8.91-.92L419.48,86l4.1,2.77Z"/><path class="cls-13" d="M420.7,86.85l16.87-.16L442.76,81a23.74,23.74,0,0,1,3.06-2.8l1.93-.58a11.65,11.65,0,0,1,4.3-.44l-.17.08a21.77,21.77,0,0,0-7.39,5.31l-3.73,4.12,2.1,0a26.84,26.84,0,0,0,10.3-2.15L458.9,82a4.23,4.23,0,0,1-1.77,3.74l-8.64,6.27L423.58,88.8Z"/><path class="cls-12" d="M423.58,88.8l24.25,2.13a2.34,2.34,0,0,1,1.29,4.13l-3.74,3.12a3.5,3.5,0,0,1-3.5.59L425,92.34Z"/><path class="cls-13" d="M447.09,96.75l-1.71,1.43a3.5,3.5,0,0,1-3.5.59L425,92.34,424.05,90Z"/><path class="cls-8" d="M406.32,92.55c3.38-6.25,10.49-9,15.9-6s5,9.24,1.6,15.5-8.44,10.07-13.84,7.16S402.94,98.81,406.32,92.55Z"/><path class="cls-11" d="M411.48,100.66a13.15,13.15,0,0,1-5.9-6.49c-2.32,5.87-.54,12.32,4.4,15,5.4,2.91,10.46-.9,13.84-7.16a20.12,20.12,0,0,0,2.41-7C422.83,100.79,417.56,104,411.48,100.66Z"/><path class="cls-7" d="M358.1,261.87a1.12,1.12,0,0,1,.46.94,27.17,27.17,0,0,0,4.52,15.78,1.16,1.16,0,0,1-.23,1.61,1.14,1.14,0,0,1-1.6-.23,29.12,29.12,0,0,1-5-17.22,1.14,1.14,0,0,1,1.17-1.11A1.08,1.08,0,0,1,358.1,261.87Z"/><path class="cls-7" d="M354.45,259.11a1.07,1.07,0,0,1,.4.57,1.14,1.14,0,0,1-.75,1.43,29.11,29.11,0,0,1-17.92-.09,1.14,1.14,0,1,1,.82-2.13,27.35,27.35,0,0,0,16.42,0A1.11,1.11,0,0,1,354.45,259.11Z"/><ellipse class="cls-8" cx="357.46" cy="258.93" rx="6.06" ry="6.34" transform="translate(-64.64 387.98) rotate(-52.92)"/><ellipse class="cls-9" cx="361.8" cy="253.18" rx="9.16" ry="10.3" transform="translate(-58.33 389.16) rotate(-52.92)"/><path class="cls-10" d="M365.45,255.94c-2.51,3.33-7.14,4.24-11.23,2.53a11.28,11.28,0,0,0,2.06,2c4.54,3.43,10.69,2.94,13.74-1.1s1.84-10.08-2.7-13.51a11.47,11.47,0,0,0-2.5-1.44C367.58,247.91,368,252.61,365.45,255.94Z"/><ellipse class="cls-8" cx="379.74" cy="229.44" rx="20.6" ry="17.17" transform="matrix(0.6, -0.8, 0.8, 0.6, -32.26, 394.05)"/><path class="cls-11" d="M384.31,232.89c-5,6.64-11.5,11-17.54,12.51.18.16.35.33.55.48,7.57,5.71,19.26,3,26.12-6.09s6.29-21.07-1.27-26.79c-.2-.15-.41-.27-.61-.4C391.79,218.81,389.33,226.25,384.31,232.89Z"/><path class="cls-9" d="M378.36,231.26a26.27,26.27,0,0,0-15.9-5.45c-2.61,7.62-.94,15.68,4.86,20.07s14,3.79,20.63-.81A26.32,26.32,0,0,0,378.36,231.26Z"/><path class="cls-10" d="M367.32,245.88a15.79,15.79,0,0,0,13.38,2.46h0a.45.45,0,0,0,.11,0c.49-.12,1-.25,1.45-.4v0a21.57,21.57,0,0,0,5.69-2.82,25.61,25.61,0,0,0-5.46-9.95c-.76.87-1.55,1.69-2.36,2.46a2.31,2.31,0,0,1-3.16,0,24.1,24.1,0,0,0-2.06-1.73c-4.94-3.74-9.76-5-13.62-3.77C361.08,237.55,363.1,242.69,367.32,245.88Z"/><path class="cls-7" d="M360.93,241l12.78,9.67a1.11,1.11,0,0,1,.4.57l2.63,8.29a3.45,3.45,0,0,1-.55,3.05l-.81,1.07a1.18,1.18,0,0,0-.22.85l1.21,8.68a1.15,1.15,0,0,1-2.27.32l-1.21-8.69a3.41,3.41,0,0,1,.66-2.54l.81-1.07a1.13,1.13,0,0,0,.19-1L372,252.31l-12.2-9.22-8.34-.25a1.12,1.12,0,0,0-.88.46l-.81,1.07a3.43,3.43,0,0,1-2.27,1.33l-8.68,1.2a1.14,1.14,0,1,1-.31-2.26l8.68-1.21A1.1,1.1,0,0,0,348,243l.81-1.06a3.47,3.47,0,0,1,2.75-1.37l8.73.26A1.2,1.2,0,0,1,360.93,241Z"/><path class="cls-7" d="M350,221.32a1.14,1.14,0,0,1,.43.65l1.74,7.5a2.3,2.3,0,0,0,.85,1.3l32.72,24.73a2.3,2.3,0,0,0,1.49.46l7.69-.37a1.16,1.16,0,0,1,1.2,1.09,1.14,1.14,0,0,1-1.09,1.2l-7.69.37a4.61,4.61,0,0,1-3-.92L351.65,232.6A4.64,4.64,0,0,1,350,230l-1.74-7.49a1.15,1.15,0,0,1,.85-1.38A1.13,1.13,0,0,1,350,221.32Z"/><path class="cls-9" d="M365.61,219.72c5.09-.61,11.53,1.31,17.23,5.62s9.31,10,10.11,15c.18-.23.37-.43.54-.66.51-.67,1-1.36,1.41-2-.06-6.87-2.84-13.28-8.25-17.37s-12.35-5-19-3.21c-.55.62-1.08,1.25-1.59,1.92C365.92,219.25,365.77,219.49,365.61,219.72Z"/><path class="cls-10" d="M386.88,229a22.56,22.56,0,0,1,6.07,11.4h0c.16-.21.34-.41.5-.62a24.42,24.42,0,0,0,1.44-2.15,22.35,22.35,0,0,0-5.22-14.46A36.15,36.15,0,0,1,386.88,229Z"/><path class="cls-12" d="M399.52,236.49l10.24,2.07a4.21,4.21,0,0,1,2.53,6.66h0a11.41,11.41,0,0,1-7.55,4.44l-28.58,4,2.53-4.14Z"/><path class="cls-13" d="M376.91,252.41,392,245.7l6.94,3a23.28,23.28,0,0,0,3.87,1.25l1.94-.27a11.48,11.48,0,0,0,4-1.36h-.19a21.13,21.13,0,0,1-8.73-1.72l-5-2.15,1.87-.84a26.56,26.56,0,0,1,10-2.26l6.11-.16a4.19,4.19,0,0,0-3.1-2.61l-10.24-2.07-20.83,13Z"/><path class="cls-12" d="M378.69,249.5l20.7-11.74a2.29,2.29,0,0,0-.52-4.2l-4.61-1.26a3.44,3.44,0,0,0-3.34.9l-12.41,12.58Z"/><path class="cls-13" d="M396.38,232.88l-2.12-.58a3.44,3.44,0,0,0-3.34.9l-12.41,12.58.12,2.5Z"/><path class="cls-12" d="M367.56,212.34l-4.79-9.29a4.21,4.21,0,0,0-7.1-.62h0a11.43,11.43,0,0,0-2.2,8.48l4,28.58,3.29-3.56Z"/><path class="cls-13" d="M358.42,238.43l2.34-16.34L356,216.23a22.89,22.89,0,0,1-2.26-3.38l-.27-1.94a11.34,11.34,0,0,1,.21-4.23l.05.18a21.24,21.24,0,0,0,4,7.93L361.2,219l.29-2a26.2,26.2,0,0,0-.55-10.28l-1.52-5.92a4.18,4.18,0,0,1,3.35,2.27l4.79,9.29-6.83,23.59Z"/><path class="cls-12" d="M360.73,235.93l5.65-23.12a2.28,2.28,0,0,1,4.18-.64l2.47,4.08a3.45,3.45,0,0,1,.05,3.47l-8.72,15.37Z"/><path class="cls-13" d="M371.89,214.38l1.14,1.87a3.45,3.45,0,0,1,.05,3.47l-8.72,15.37-2.44.56Z"/><path class="cls-8" d="M361.8,253.18c-5.55-4.19-7.11-11.47-3.49-16.27s9.67-3.45,15.22.75,8.49,9.65,4.87,14.44S367.35,257.37,361.8,253.18Z"/><path class="cls-11" d="M370.41,249.39a12.86,12.86,0,0,1-7.16,4.74c5.33,3.12,11.84,2.35,15.15-2,3.62-4.79.68-10.25-4.87-14.44a19.69,19.69,0,0,0-6.39-3.37C372.21,238.44,374.48,244,370.41,249.39Z"/></svg>